<svg width="20" height="20" viewBox="0 0 20 20" fill="none" xmlns="http://www.w3.org/2000/svg">
<g clip-path="url(#clip0_73462_44989)">
<path d="M11.8625 15.8359C12.5833 15.8359 12.9642 16.6893 12.4833 17.2259C12.171 17.5755 11.7883 17.8551 11.3603 18.0464C10.9323 18.2376 10.4688 18.3363 10 18.3359C9.53123 18.3363 9.06767 18.2376 8.6397 18.0464C8.21173 17.8551 7.82903 17.5755 7.51667 17.2259C7.05667 16.7126 7.385 15.9101 8.045 15.8418L8.13667 15.8368L11.8625 15.8359Z" fill="white" fill-opacity="0.4"/>
<path d="M10 1.66406C11.1317 1.66406 12.0883 2.41656 12.3958 3.44823L12.4342 3.59073L12.4408 3.62656C13.3595 4.14481 14.1423 4.87331 14.7252 5.75239C15.308 6.63147 15.6744 7.63613 15.7942 8.68406L15.8175 8.92323L15.8333 9.16406V11.6066L15.8508 11.7199C15.9649 12.3339 16.3047 12.883 16.8033 13.2591L16.9425 13.3566L17.0775 13.4391C17.7942 13.8449 17.5442 14.9107 16.7633 14.9924L16.6667 14.9974H3.33333C2.47666 14.9974 2.1775 13.8607 2.9225 13.4391C3.24002 13.2594 3.51437 13.0124 3.72628 12.7154C3.93819 12.4184 4.08253 12.0786 4.14916 11.7199L4.16666 11.6007L4.1675 9.12573C4.21831 8.03729 4.53513 6.9779 5.09023 6.04028C5.64534 5.10266 6.4218 4.3154 7.35166 3.7474L7.55833 3.62573L7.56666 3.5899C7.68454 3.09158 7.95245 2.64143 8.33423 2.30018C8.71602 1.95893 9.1933 1.74301 9.70166 1.68156L9.85333 1.6674L10 1.66406Z" fill="white" fill-opacity="0.4"/>
</g>
<defs>
<clipPath id="clip0_73462_44989">
<rect width="20" height="20" fill="white"/>
</clipPath>
</defs>
</svg>
