<svg xmlns="http://www.w3.org/2000/svg" width="24" height="26" viewBox="0 0 24 26" fill="none">
  <path d="M11.2929 25.7071C11.6834 26.0976 12.3166 26.0976 12.7071 25.7071L19.0711 19.3431C19.4616 18.9526 19.4616 18.3195 19.0711 17.9289C18.6805 17.5384 18.0474 17.5384 17.6569 17.9289L12 23.5858L6.34315 17.9289C5.95262 17.5384 5.31946 17.5384 4.92893 17.9289C4.53841 18.3195 4.53841 18.9526 4.92893 19.3431L11.2929 25.7071ZM13 1C13 .447714 12.5523 0 12 0C11.4477 0 11 .447714 11 1H13ZM12 25H13V1H11V25H12Z" fill="#213786"/>
</svg>
