<svg width="24" height="24" viewBox="0 0 24 24" fill="none" xmlns="http://www.w3.org/2000/svg">
<path d="M21.0001 12C21.0001 17.5228 17.523 22 12.0001 22C4.47727 22 1.00012 17.5228 1.00012 12C1.00012 6.47715 4.47727 2 12.0001 2C17.523 2 21.0001 6.47715 21.0001 12Z" fill="url(#paint0_linear_74355_41212)"/>
<rect x="3" y="2" width="20" height="20" rx="10" fill="url(#paint1_linear_74355_41212)"/>
<g clip-path="url(#clip0_74355_41212)">
<path d="M11.4174 10.9081C11.824 10.9081 12.022 11.0652 12.022 11.2788C12.022 11.4924 11.8225 11.6495 11.4174 11.6495H11.0153L10.515 12.6973H11.4839C11.9192 12.6973 12.1044 12.8482 12.1044 13.0604C12.1044 13.2725 11.9192 13.4242 11.4839 13.4242H10.1643L9.55968 14.6789H11.341C12.7369 14.6789 13.4315 14.075 13.4315 13.2846C13.4379 13.044 13.3806 12.8059 13.2656 12.5944C13.1506 12.3829 12.9818 12.2054 12.7762 12.0797C13.1458 11.8352 13.3869 11.4758 13.3869 11.0501C13.3869 10.1925 12.6447 9.66406 11.4672 9.66406H9.68514L8.55148 12.0345L7.42085 9.66406H6L7.82594 13.5307L7.28481 14.6789H8.68299L10.4878 10.9081H11.4174Z" fill="#213786"/>
<path d="M13.8971 11.802H18.6411L18.0879 10.6334C17.9261 10.3377 17.687 10.0913 17.396 9.92058C17.105 9.74988 16.7732 9.66125 16.4358 9.66413H13.5691C13.9019 10.0183 14.087 10.4859 14.0868 10.9716C14.0847 11.2589 14.0199 11.5422 13.8971 11.802Z" fill="#213786"/>
<path d="M13.9357 12.5391C14.0623 12.7975 14.1275 13.0817 14.1261 13.3695C14.1316 13.6145 14.0845 13.8579 13.9882 14.0834C13.8919 14.3089 13.7485 14.5112 13.5676 14.6769H20L18.991 12.5391H13.9357Z" fill="#213786"/>
</g>
<defs>
<linearGradient id="paint0_linear_74355_41212" x1="11.0001" y1="22" x2="11.0001" y2="2" gradientUnits="userSpaceOnUse">
<stop stop-color="#808EC0"/>
<stop offset="1" stop-color="#B6BDD9"/>
</linearGradient>
<linearGradient id="paint1_linear_74355_41212" x1="10.5" y1="3.5" x2="14.5" y2="20.5" gradientUnits="userSpaceOnUse">
<stop stop-color="#D9DAE0"/>
<stop offset="1" stop-color="#AAB3C4"/>
</linearGradient>
<clipPath id="clip0_74355_41212">
<rect width="14" height="14" fill="white" transform="translate(6 5)"/>
</clipPath>
</defs>
</svg>
