<svg width="154" height="14" viewBox="0 0 154 14" fill="none" xmlns="http://www.w3.org/2000/svg">
<g clip-path="url(#clip0_60903_35985)">
<path fill-rule="evenodd" clip-rule="evenodd" d="M22.4628 0.699691V0.203857H19.2428L16.2975 4.31577H15.6273V0.203857H12.6056V11.6798H15.6273V7.17236H16.3174L19.5735 11.6798H22.842V11.1845L18.7615 5.67377L22.4628 0.699691Z" fill="#FFFFFE"/>
<path fill-rule="evenodd" clip-rule="evenodd" d="M42.5045 5.81854C43.2203 5.22762 43.6724 4.43721 43.6724 3.50621C43.6724 1.42662 41.5747 0.0400391 39.1643 0.0400391C37.9592 0.0400391 36.4168 0.254122 35.5914 0.567956V3.58962C36.5988 3.20929 38.0583 2.94504 38.9993 2.94504C39.792 2.94504 40.5848 3.19296 40.5848 3.88596C40.5848 4.49787 39.7751 4.71196 38.9993 4.71196H37.398V7.12287H39.33C40.0563 7.12287 40.9144 7.30429 40.9144 7.99729C40.9144 8.69204 39.9472 8.93937 38.9893 8.93937C38.0478 8.93937 36.5685 8.77371 35.396 8.29537V11.317C36.2214 11.6303 37.9487 11.8455 39.1544 11.8455C41.6972 11.8455 44.0025 10.4584 44.0025 8.37821C44.0025 7.31129 43.4081 6.42754 42.5045 5.81854Z" fill="#FFFFFE"/>
<path fill-rule="evenodd" clip-rule="evenodd" d="M60.8995 0.435181L57.2828 10.8658V11.6795H60.2602L62.7504 3.89843H62.8309L65.1689 11.6795H68.3283V10.8658L64.6935 0.435181H60.8995Z" fill="#FFFFFE"/>
<path fill-rule="evenodd" clip-rule="evenodd" d="M29.4489 5.6866H27.616V3.1106H29.4489C30.1425 3.1106 30.7036 3.69685 30.7036 4.39918C30.7036 5.10152 30.1425 5.6866 29.4489 5.6866ZM29.4489 0.205017H24.5944V11.6803H27.616V8.5601H29.4489C31.8598 8.5601 33.7912 6.69402 33.7912 4.38285C33.7912 2.07052 31.8598 0.205017 29.4489 0.205017Z" fill="#FFFFFE"/>
<path fill-rule="evenodd" clip-rule="evenodd" d="M93.8921 4.31592H89.8665V0.20459H86.8442V11.6805H89.8665V7.17192H93.8921V11.6805H96.9132V0.20459H93.8921V4.31592Z" fill="#FFFFFE"/>
<path fill-rule="evenodd" clip-rule="evenodd" d="M122.957 0.20459H119.935V8.80701H116.174V0.20459H113.152V11.6805H121.635V13.5297H124.192L124.522 8.82276H122.957V0.20459Z" fill="#FFFFFE"/>
<path fill-rule="evenodd" clip-rule="evenodd" d="M132.458 5.94226H130.407C129.714 5.94226 129.152 5.29826 129.152 4.52651C129.152 3.75417 129.714 3.11076 130.407 3.11076H132.458V5.94226ZM126.044 4.38184C126.044 5.76142 126.756 7.01792 127.82 7.74242L125.849 11.1847V11.6805H128.87L130.589 8.44417H132.458V11.6805H135.479V0.20459H130.407C127.996 0.20459 126.044 2.07009 126.044 4.38184Z" fill="#FFFFFE"/>
<path fill-rule="evenodd" clip-rule="evenodd" d="M102.854 6.90476V0.20459H99.8325V11.6805H102.754L107.21 5.04917V11.6805H110.231V0.20459H107.31L102.854 6.90476Z" fill="#FFFFFE"/>
<path fill-rule="evenodd" clip-rule="evenodd" d="M70.3149 11.6805H73.3366V0.20459H70.3149V11.6805Z" fill="#FFFFFE"/>
<path fill-rule="evenodd" clip-rule="evenodd" d="M83.1516 5.81848C83.8668 5.22756 84.3188 4.43714 84.3188 3.50614C84.3188 1.42656 82.2218 0.039978 79.8108 0.039978C78.6062 0.039978 77.054 0.253478 76.2286 0.567895V3.58956C77.2354 3.20923 78.7048 2.94498 79.6463 2.94498C80.4391 2.94498 81.2318 3.19289 81.2318 3.88589C81.2318 4.49781 80.4222 4.71189 79.6463 4.71189H78.0445V7.12281H79.9765C80.7033 7.12281 81.5608 7.30423 81.5608 7.99723C81.5608 8.69198 80.6042 8.93931 79.6463 8.93931C78.7048 8.93931 77.2354 8.77364 76.0635 8.29531V11.317C76.8883 11.6302 78.6062 11.8455 79.8108 11.8455C82.3542 11.8455 84.649 10.4583 84.649 8.37814C84.649 7.31123 84.0552 6.42748 83.1516 5.81848Z" fill="#FFFFFE"/>
<path fill-rule="evenodd" clip-rule="evenodd" d="M49.5709 7.24968L50.6402 3.81151H50.7207L51.7905 7.24968H49.5709ZM48.8097 0.435181L45.1714 10.8599V11.6743H48.1476L48.7607 9.73935H52.5862L53.222 11.6743H56.3277V10.8599L52.5506 0.435181H48.8097Z" fill="#FFFFFE"/>
<path fill-rule="evenodd" clip-rule="evenodd" d="M5.73036 5.94278L3.19402 0.205112L0.00317383 0.204529V0.726612L4.02702 9.31736L3.09894 11.2324L3.10127 11.7534H6.22911L11.3234 0.726612V0.204529L8.34954 0.205112L5.81028 5.94278H5.73036Z" fill="#FFFFFE"/>
<path fill-rule="evenodd" clip-rule="evenodd" d="M150.027 5.09688L148.765 2.42813C148.043 1.0433 146.541 0.204468 144.98 0.204468H141.056H138.413V5.09688H150.027Z" fill="#FFFFFE"/>
<path fill-rule="evenodd" clip-rule="evenodd" d="M150.826 6.7879H138.413V11.7048H141.056L153.146 11.7042L150.826 6.7879Z" fill="#FFFFFE"/>
</g>
<defs>
<clipPath id="clip0_60903_35985">
<rect width="153.417" height="14" fill="white"/>
</clipPath>
</defs>
</svg>
